<mxfile host="app.diagrams.net" agent="Mozilla/5.0 (Windows NT 10.0; Win64; x64) AppleWebKit/537.36 (KHTML, like Gecko) Chrome/130.0.0.0 Safari/537.36" version="24.8.4">
  <diagram name="Page-1" id="jI-opjyKiPzEOt0cDwvR">
    <mxGraphModel dx="934" dy="525" grid="1" gridSize="10" guides="1" tooltips="1" connect="1" arrows="1" fold="1" page="1" pageScale="1" pageWidth="850" pageHeight="1100" math="0" shadow="0">
      <root>
        <mxCell id="0" />
        <mxCell id="1" parent="0" />
        <mxCell id="xY0x-o7QnOKKverDINKX-9" style="edgeStyle=orthogonalEdgeStyle;rounded=0;orthogonalLoop=1;jettySize=auto;html=1;exitX=0.5;exitY=1;exitDx=0;exitDy=0;entryX=0.5;entryY=0;entryDx=0;entryDy=0;endArrow=none;endFill=0;" edge="1" parent="1" source="xY0x-o7QnOKKverDINKX-45" target="xY0x-o7QnOKKverDINKX-2">
          <mxGeometry relative="1" as="geometry" />
        </mxCell>
        <mxCell id="xY0x-o7QnOKKverDINKX-10" style="rounded=0;orthogonalLoop=1;jettySize=auto;html=1;exitX=0.25;exitY=1;exitDx=0;exitDy=0;entryX=1;entryY=0.25;entryDx=0;entryDy=0;endArrow=none;endFill=0;" edge="1" parent="1" source="xY0x-o7QnOKKverDINKX-1" target="xY0x-o7QnOKKverDINKX-3">
          <mxGeometry relative="1" as="geometry" />
        </mxCell>
        <mxCell id="xY0x-o7QnOKKverDINKX-11" style="rounded=0;orthogonalLoop=1;jettySize=auto;html=1;exitX=0.75;exitY=1;exitDx=0;exitDy=0;entryX=0;entryY=0.5;entryDx=0;entryDy=0;endArrow=none;endFill=0;" edge="1" parent="1" source="xY0x-o7QnOKKverDINKX-1" target="xY0x-o7QnOKKverDINKX-4">
          <mxGeometry relative="1" as="geometry" />
        </mxCell>
        <mxCell id="xY0x-o7QnOKKverDINKX-1" value="Users" style="rounded=0;whiteSpace=wrap;html=1;" vertex="1" parent="1">
          <mxGeometry x="360" y="190" width="150" height="40" as="geometry" />
        </mxCell>
        <mxCell id="xY0x-o7QnOKKverDINKX-2" value="Register" style="rounded=0;whiteSpace=wrap;html=1;" vertex="1" parent="1">
          <mxGeometry x="360" y="340" width="150" height="30" as="geometry" />
        </mxCell>
        <mxCell id="xY0x-o7QnOKKverDINKX-3" value="Log in" style="rounded=0;whiteSpace=wrap;html=1;" vertex="1" parent="1">
          <mxGeometry x="130" y="270" width="150" height="30" as="geometry" />
        </mxCell>
        <mxCell id="xY0x-o7QnOKKverDINKX-4" value="Log out" style="rounded=0;whiteSpace=wrap;html=1;" vertex="1" parent="1">
          <mxGeometry x="590" y="270" width="150" height="30" as="geometry" />
        </mxCell>
        <mxCell id="xY0x-o7QnOKKverDINKX-5" value="check for existing users&lt;span style=&quot;color: rgba(0, 0, 0, 0); font-family: monospace; font-size: 0px; text-align: start; text-wrap-mode: nowrap;&quot;&gt;%3CmxGraphModel%3E%3Croot%3E%3CmxCell%20id%3D%220%22%2F%3E%3CmxCell%20id%3D%221%22%20parent%3D%220%22%2F%3E%3CmxCell%20id%3D%222%22%20value%3D%22Log%20in%22%20style%3D%22rounded%3D0%3BwhiteSpace%3Dwrap%3Bhtml%3D1%3B%22%20vertex%3D%221%22%20parent%3D%221%22%3E%3CmxGeometry%20x%3D%2290%22%20y%3D%22110%22%20width%3D%22150%22%20height%3D%2230%22%20as%3D%22geometry%22%2F%3E%3C%2FmxCell%3E%3C%2Froot%3E%3C%2FmxGraphModel%3E&lt;/span&gt;" style="rounded=0;whiteSpace=wrap;html=1;" vertex="1" parent="1">
          <mxGeometry x="230" y="460" width="140" height="40" as="geometry" />
        </mxCell>
        <mxCell id="xY0x-o7QnOKKverDINKX-6" value="create user" style="rounded=0;whiteSpace=wrap;html=1;" vertex="1" parent="1">
          <mxGeometry x="520" y="460" width="140" height="40" as="geometry" />
        </mxCell>
        <mxCell id="xY0x-o7QnOKKverDINKX-7" style="rounded=0;orthogonalLoop=1;jettySize=auto;html=1;exitX=0.5;exitY=1;exitDx=0;exitDy=0;entryX=0.629;entryY=0.033;entryDx=0;entryDy=0;entryPerimeter=0;endArrow=none;endFill=0;" edge="1" parent="1" source="xY0x-o7QnOKKverDINKX-2" target="xY0x-o7QnOKKverDINKX-5">
          <mxGeometry relative="1" as="geometry" />
        </mxCell>
        <mxCell id="xY0x-o7QnOKKverDINKX-8" style="rounded=0;orthogonalLoop=1;jettySize=auto;html=1;entryX=0.376;entryY=0.067;entryDx=0;entryDy=0;entryPerimeter=0;endArrow=none;endFill=0;" edge="1" parent="1" source="xY0x-o7QnOKKverDINKX-47" target="xY0x-o7QnOKKverDINKX-6">
          <mxGeometry relative="1" as="geometry" />
        </mxCell>
        <mxCell id="xY0x-o7QnOKKverDINKX-15" style="rounded=0;orthogonalLoop=1;jettySize=auto;html=1;entryX=0.5;entryY=1;entryDx=0;entryDy=0;endArrow=none;endFill=0;" edge="1" parent="1" source="xY0x-o7QnOKKverDINKX-12" target="xY0x-o7QnOKKverDINKX-4">
          <mxGeometry relative="1" as="geometry" />
        </mxCell>
        <mxCell id="xY0x-o7QnOKKverDINKX-12" value="invalidate session&amp;nbsp;" style="rounded=0;whiteSpace=wrap;html=1;" vertex="1" parent="1">
          <mxGeometry x="580" y="340" width="170" height="35" as="geometry" />
        </mxCell>
        <mxCell id="xY0x-o7QnOKKverDINKX-16" value="" style="ellipse;whiteSpace=wrap;html=1;aspect=fixed;" vertex="1" parent="1">
          <mxGeometry x="640" y="310" width="10" height="10" as="geometry" />
        </mxCell>
        <mxCell id="xY0x-o7QnOKKverDINKX-17" style="edgeStyle=orthogonalEdgeStyle;rounded=0;orthogonalLoop=1;jettySize=auto;html=1;exitX=0.5;exitY=1;exitDx=0;exitDy=0;entryX=0.384;entryY=-0.126;entryDx=0;entryDy=0;entryPerimeter=0;" edge="1" parent="1" source="xY0x-o7QnOKKverDINKX-16" target="xY0x-o7QnOKKverDINKX-12">
          <mxGeometry relative="1" as="geometry" />
        </mxCell>
        <mxCell id="xY0x-o7QnOKKverDINKX-18" value="" style="ellipse;whiteSpace=wrap;html=1;aspect=fixed;fillColor=#171717;" vertex="1" parent="1">
          <mxGeometry x="670" y="320" width="10" height="10" as="geometry" />
        </mxCell>
        <mxCell id="xY0x-o7QnOKKverDINKX-19" style="edgeStyle=orthogonalEdgeStyle;rounded=0;orthogonalLoop=1;jettySize=auto;html=1;exitX=0.5;exitY=0;exitDx=0;exitDy=0;entryX=0.563;entryY=1.081;entryDx=0;entryDy=0;entryPerimeter=0;" edge="1" parent="1" source="xY0x-o7QnOKKverDINKX-18" target="xY0x-o7QnOKKverDINKX-4">
          <mxGeometry relative="1" as="geometry" />
        </mxCell>
        <mxCell id="xY0x-o7QnOKKverDINKX-26" style="rounded=0;orthogonalLoop=1;jettySize=auto;html=1;exitX=1;exitY=1;exitDx=0;exitDy=0;" edge="1" parent="1" source="xY0x-o7QnOKKverDINKX-20">
          <mxGeometry relative="1" as="geometry">
            <mxPoint x="560" y="290" as="targetPoint" />
          </mxGeometry>
        </mxCell>
        <mxCell id="xY0x-o7QnOKKverDINKX-20" value="" style="ellipse;whiteSpace=wrap;html=1;aspect=fixed;" vertex="1" parent="1">
          <mxGeometry x="530" y="270" width="10" height="10" as="geometry" />
        </mxCell>
        <mxCell id="xY0x-o7QnOKKverDINKX-29" style="edgeStyle=orthogonalEdgeStyle;rounded=0;orthogonalLoop=1;jettySize=auto;html=1;exitX=0.5;exitY=1;exitDx=0;exitDy=0;" edge="1" parent="1" source="xY0x-o7QnOKKverDINKX-21">
          <mxGeometry relative="1" as="geometry">
            <mxPoint x="420.1794871794872" y="320" as="targetPoint" />
          </mxGeometry>
        </mxCell>
        <mxCell id="xY0x-o7QnOKKverDINKX-21" value="" style="ellipse;whiteSpace=wrap;html=1;aspect=fixed;" vertex="1" parent="1">
          <mxGeometry x="415" y="280" width="10" height="10" as="geometry" />
        </mxCell>
        <mxCell id="xY0x-o7QnOKKverDINKX-32" style="rounded=0;orthogonalLoop=1;jettySize=auto;html=1;exitX=0;exitY=1;exitDx=0;exitDy=0;" edge="1" parent="1" source="xY0x-o7QnOKKverDINKX-22">
          <mxGeometry relative="1" as="geometry">
            <mxPoint x="290" y="260" as="targetPoint" />
          </mxGeometry>
        </mxCell>
        <mxCell id="xY0x-o7QnOKKverDINKX-22" value="" style="ellipse;whiteSpace=wrap;html=1;aspect=fixed;" vertex="1" parent="1">
          <mxGeometry x="340" y="230" width="10" height="10" as="geometry" />
        </mxCell>
        <mxCell id="xY0x-o7QnOKKverDINKX-44" style="rounded=0;orthogonalLoop=1;jettySize=auto;html=1;exitX=0;exitY=1;exitDx=0;exitDy=0;" edge="1" parent="1" source="xY0x-o7QnOKKverDINKX-23">
          <mxGeometry relative="1" as="geometry">
            <mxPoint x="340" y="430" as="targetPoint" />
          </mxGeometry>
        </mxCell>
        <mxCell id="xY0x-o7QnOKKverDINKX-23" value="" style="ellipse;whiteSpace=wrap;html=1;aspect=fixed;" vertex="1" parent="1">
          <mxGeometry x="370" y="390" width="10" height="10" as="geometry" />
        </mxCell>
        <mxCell id="xY0x-o7QnOKKverDINKX-41" style="rounded=0;orthogonalLoop=1;jettySize=auto;html=1;exitX=1;exitY=1;exitDx=0;exitDy=0;" edge="1" parent="1" source="xY0x-o7QnOKKverDINKX-24">
          <mxGeometry relative="1" as="geometry">
            <mxPoint x="530" y="450" as="targetPoint" />
          </mxGeometry>
        </mxCell>
        <mxCell id="xY0x-o7QnOKKverDINKX-24" value="" style="ellipse;whiteSpace=wrap;html=1;aspect=fixed;" vertex="1" parent="1">
          <mxGeometry x="480" y="410" width="10" height="10" as="geometry" />
        </mxCell>
        <mxCell id="xY0x-o7QnOKKverDINKX-25" value="" style="ellipse;whiteSpace=wrap;html=1;aspect=fixed;" vertex="1" parent="1">
          <mxGeometry x="160" y="330" width="10" height="10" as="geometry" />
        </mxCell>
        <mxCell id="xY0x-o7QnOKKverDINKX-28" style="rounded=0;orthogonalLoop=1;jettySize=auto;html=1;exitX=0;exitY=0;exitDx=0;exitDy=0;" edge="1" parent="1" source="xY0x-o7QnOKKverDINKX-27">
          <mxGeometry relative="1" as="geometry">
            <mxPoint x="530" y="240" as="targetPoint" />
          </mxGeometry>
        </mxCell>
        <mxCell id="xY0x-o7QnOKKverDINKX-27" value="" style="ellipse;whiteSpace=wrap;html=1;aspect=fixed;fillColor=#171717;" vertex="1" parent="1">
          <mxGeometry x="550" y="250" width="10" height="10" as="geometry" />
        </mxCell>
        <mxCell id="xY0x-o7QnOKKverDINKX-31" style="edgeStyle=orthogonalEdgeStyle;rounded=0;orthogonalLoop=1;jettySize=auto;html=1;exitX=0.5;exitY=0;exitDx=0;exitDy=0;" edge="1" parent="1" source="xY0x-o7QnOKKverDINKX-30">
          <mxGeometry relative="1" as="geometry">
            <mxPoint x="444.7948717948718" y="280" as="targetPoint" />
          </mxGeometry>
        </mxCell>
        <mxCell id="xY0x-o7QnOKKverDINKX-30" value="" style="ellipse;whiteSpace=wrap;html=1;aspect=fixed;fillColor=#171717;" vertex="1" parent="1">
          <mxGeometry x="440" y="310" width="10" height="10" as="geometry" />
        </mxCell>
        <mxCell id="xY0x-o7QnOKKverDINKX-35" style="rounded=0;orthogonalLoop=1;jettySize=auto;html=1;exitX=1;exitY=0;exitDx=0;exitDy=0;" edge="1" parent="1" source="xY0x-o7QnOKKverDINKX-34">
          <mxGeometry relative="1" as="geometry">
            <mxPoint x="360" y="260" as="targetPoint" />
          </mxGeometry>
        </mxCell>
        <mxCell id="xY0x-o7QnOKKverDINKX-34" value="" style="ellipse;whiteSpace=wrap;html=1;aspect=fixed;fillColor=#171717;" vertex="1" parent="1">
          <mxGeometry x="300" y="280" width="10" height="10" as="geometry" />
        </mxCell>
        <mxCell id="xY0x-o7QnOKKverDINKX-39" style="rounded=0;orthogonalLoop=1;jettySize=auto;html=1;exitX=0;exitY=0;exitDx=0;exitDy=0;" edge="1" parent="1" source="xY0x-o7QnOKKverDINKX-38">
          <mxGeometry relative="1" as="geometry">
            <mxPoint x="500" y="390" as="targetPoint" />
          </mxGeometry>
        </mxCell>
        <mxCell id="xY0x-o7QnOKKverDINKX-38" value="" style="ellipse;whiteSpace=wrap;html=1;aspect=fixed;fillColor=#171717;" vertex="1" parent="1">
          <mxGeometry x="540" y="420" width="10" height="10" as="geometry" />
        </mxCell>
        <mxCell id="xY0x-o7QnOKKverDINKX-43" style="rounded=0;orthogonalLoop=1;jettySize=auto;html=1;exitX=1;exitY=0;exitDx=0;exitDy=0;" edge="1" parent="1" source="xY0x-o7QnOKKverDINKX-42">
          <mxGeometry relative="1" as="geometry">
            <mxPoint x="400" y="410" as="targetPoint" />
          </mxGeometry>
        </mxCell>
        <mxCell id="xY0x-o7QnOKKverDINKX-42" value="" style="ellipse;whiteSpace=wrap;html=1;aspect=fixed;fillColor=#171717;" vertex="1" parent="1">
          <mxGeometry x="360" y="440" width="10" height="10" as="geometry" />
        </mxCell>
        <mxCell id="xY0x-o7QnOKKverDINKX-46" value="" style="edgeStyle=orthogonalEdgeStyle;rounded=0;orthogonalLoop=1;jettySize=auto;html=1;exitX=0.5;exitY=1;exitDx=0;exitDy=0;entryX=0.5;entryY=0;entryDx=0;entryDy=0;endArrow=none;endFill=0;" edge="1" parent="1" source="xY0x-o7QnOKKverDINKX-1" target="xY0x-o7QnOKKverDINKX-45">
          <mxGeometry relative="1" as="geometry">
            <mxPoint x="435" y="230" as="sourcePoint" />
            <mxPoint x="435" y="340" as="targetPoint" />
          </mxGeometry>
        </mxCell>
        <mxCell id="xY0x-o7QnOKKverDINKX-45" value="" style="rhombus;whiteSpace=wrap;html=1;" vertex="1" parent="1">
          <mxGeometry x="425" y="230" width="20" height="20" as="geometry" />
        </mxCell>
        <mxCell id="xY0x-o7QnOKKverDINKX-48" value="" style="rounded=0;orthogonalLoop=1;jettySize=auto;html=1;entryX=0.376;entryY=0.067;entryDx=0;entryDy=0;entryPerimeter=0;endArrow=none;endFill=0;" edge="1" parent="1" source="xY0x-o7QnOKKverDINKX-2" target="xY0x-o7QnOKKverDINKX-47">
          <mxGeometry relative="1" as="geometry">
            <mxPoint x="454" y="370" as="sourcePoint" />
            <mxPoint x="573" y="463" as="targetPoint" />
          </mxGeometry>
        </mxCell>
        <mxCell id="xY0x-o7QnOKKverDINKX-47" value="" style="rhombus;whiteSpace=wrap;html=1;" vertex="1" parent="1">
          <mxGeometry x="460" y="370" width="20" height="20" as="geometry" />
        </mxCell>
        <mxCell id="xY0x-o7QnOKKverDINKX-49" value="&lt;font style=&quot;font-size: 6px;&quot;&gt;session ID&lt;/font&gt;" style="text;html=1;align=center;verticalAlign=middle;resizable=0;points=[];autosize=1;strokeColor=none;fillColor=none;" vertex="1" parent="1">
          <mxGeometry x="595" y="308" width="50" height="30" as="geometry" />
        </mxCell>
        <mxCell id="xY0x-o7QnOKKverDINKX-50" value="&lt;span style=&quot;font-size: 6px;&quot;&gt;success&lt;/span&gt;" style="text;html=1;align=center;verticalAlign=middle;resizable=0;points=[];autosize=1;strokeColor=none;fillColor=none;" vertex="1" parent="1">
          <mxGeometry x="680" y="308" width="50" height="30" as="geometry" />
        </mxCell>
        <mxCell id="xY0x-o7QnOKKverDINKX-51" value="&lt;font style=&quot;font-size: 6px;&quot;&gt;logout status&lt;/font&gt;" style="text;html=1;align=center;verticalAlign=middle;resizable=0;points=[];autosize=1;strokeColor=none;fillColor=none;" vertex="1" parent="1">
          <mxGeometry x="540" y="225" width="60" height="30" as="geometry" />
        </mxCell>
        <mxCell id="xY0x-o7QnOKKverDINKX-53" value="&lt;font style=&quot;font-size: 6px;&quot;&gt;session ID&lt;/font&gt;" style="text;html=1;align=center;verticalAlign=middle;resizable=0;points=[];autosize=1;strokeColor=none;fillColor=none;" vertex="1" parent="1">
          <mxGeometry x="495" y="268" width="50" height="30" as="geometry" />
        </mxCell>
        <mxCell id="xY0x-o7QnOKKverDINKX-54" value="&lt;font style=&quot;font-size: 6px;&quot;&gt;user details&lt;/font&gt;" style="text;html=1;align=center;verticalAlign=middle;resizable=0;points=[];autosize=1;strokeColor=none;fillColor=none;" vertex="1" parent="1">
          <mxGeometry x="375" y="278" width="50" height="30" as="geometry" />
        </mxCell>
        <mxCell id="xY0x-o7QnOKKverDINKX-55" value="&lt;font style=&quot;font-size: 6px;&quot;&gt;email &amp;amp; password&amp;nbsp;&lt;/font&gt;&lt;div&gt;&lt;font style=&quot;font-size: 6px;&quot;&gt;credentials&lt;/font&gt;&lt;/div&gt;" style="text;html=1;align=center;verticalAlign=middle;resizable=0;points=[];autosize=1;strokeColor=none;fillColor=none;" vertex="1" parent="1">
          <mxGeometry x="270" y="215" width="70" height="40" as="geometry" />
        </mxCell>
        <mxCell id="xY0x-o7QnOKKverDINKX-56" value="&lt;font style=&quot;font-size: 6px;&quot;&gt;login status&lt;/font&gt;" style="text;html=1;align=center;verticalAlign=middle;resizable=0;points=[];autosize=1;strokeColor=none;fillColor=none;" vertex="1" parent="1">
          <mxGeometry x="320" y="270" width="50" height="30" as="geometry" />
        </mxCell>
        <mxCell id="xY0x-o7QnOKKverDINKX-57" value="&lt;font style=&quot;font-size: 6px;&quot;&gt;email address&lt;/font&gt;" style="text;html=1;align=center;verticalAlign=middle;resizable=0;points=[];autosize=1;strokeColor=none;fillColor=none;" vertex="1" parent="1">
          <mxGeometry x="300" y="390" width="60" height="30" as="geometry" />
        </mxCell>
      </root>
    </mxGraphModel>
  </diagram>
</mxfile>
